<svg xmlns="http://www.w3.org/2000/svg" width="30" height="20" viewBox="0 0 30 20">
  <g id="그룹_218629" data-name="그룹 218629" transform="translate(-1435 -113)">
    <g id="그룹_218628" data-name="그룹 218628" transform="translate(1436 116)">
      <g id="그룹_218627" data-name="그룹 218627" transform="translate(0 0)">
        <g id="그룹_509" data-name="그룹 509" transform="translate(0)">
          <g id="그룹_508" data-name="그룹 508">
            <path id="패스_226" data-name="패스 226" d="M-4039.465-496.531h-8v-16h16v16h-3.324" transform="translate(4059.465 510.531)" fill="none" stroke="#616161" stroke-miterlimit="10" stroke-width="2"/>
            <line id="선_98" data-name="선 98" x2="4" transform="translate(7.304 14)" fill="none" stroke="#616161" stroke-miterlimit="10" stroke-width="2"/>
            <path id="패스_227" data-name="패스 227" d="M-4054.648-508.394h-6.37l-2.5,6.139-3.127,2.456v4.4h3.2" transform="translate(4066.648 509.394)" fill="none" stroke="#616161" stroke-miterlimit="10" stroke-width="2"/>
            <path id="패스_228" data-name="패스 228" d="M-4061.628-488.442a2,2,0,0,0,2,2,2,2,0,0,0,2-2,2,2,0,0,0-2-2A2,2,0,0,0-4061.628-488.442Z" transform="translate(4064.627 502.441)" fill="none" stroke="#616161" stroke-miterlimit="10" stroke-width="2"/>
            <path id="패스_229" data-name="패스 229" d="M-4034.055-488.442a2,2,0,0,0,2,2,2,2,0,0,0,2-2,2,2,0,0,0-2-2A2,2,0,0,0-4034.055-488.442Z" transform="translate(4054.483 502.441)" fill="none" stroke="#616161" stroke-miterlimit="10" stroke-width="2"/>
          </g>
          <line id="선_99" data-name="선 99" x2="8" transform="translate(3 7)" fill="none" stroke="#616161" stroke-miterlimit="10" stroke-width="2"/>
        </g>
      </g>
    </g>
  </g>
</svg>
