<svg xmlns="http://www.w3.org/2000/svg" width="24" height="20" viewBox="0 0 24 20">
  <g id="패스_13019" data-name="패스 13019" transform="translate(2436 -1767)" fill="none" stroke-miterlimit="10">
    <path d="M-2424,1787l-10.126-9.009a6.466,6.466,0,0,1,0-9.105,6.373,6.373,0,0,1,9.051,0l1.075,1.081,1.075-1.081a6.372,6.372,0,0,1,9.05,0,6.465,6.465,0,0,1,0,9.105Z" stroke="none"/>
    <path d="M -2423.999267578125 1784.991821289062 L -2414.908203125 1776.902465820312 C -2413.022216796875 1774.972778320312 -2413.0322265625 1771.859985351562 -2414.9384765625 1769.942626953125 C -2415.86328125 1769.012084960938 -2417.092529296875 1768.49951171875 -2418.3994140625 1768.49951171875 C -2419.706298828125 1768.49951171875 -2420.935546875 1769.012084960938 -2421.86083984375 1769.942993164062 L -2423.9990234375 1772.0927734375 L -2426.138671875 1769.942626953125 C -2427.0634765625 1769.012084960938 -2428.292724609375 1768.49951171875 -2429.599609375 1768.49951171875 C -2430.90673828125 1768.49951171875 -2432.13623046875 1769.012084960938 -2433.061279296875 1769.942626953125 C -2434.966552734375 1771.859741210938 -2434.9765625 1774.972778320312 -2433.091552734375 1776.902587890625 L -2423.999267578125 1784.991821289062 M -2423.999267578125 1786.999633789062 L -2434.125244140625 1777.990600585938 C -2436.624267578125 1775.47607421875 -2436.624267578125 1771.39990234375 -2434.125244140625 1768.88525390625 C -2431.6259765625 1766.37109375 -2427.573974609375 1766.37060546875 -2425.07470703125 1768.88525390625 L -2423.999267578125 1769.965942382812 L -2422.924560546875 1768.88525390625 C -2420.425048828125 1766.370849609375 -2416.37353515625 1766.370849609375 -2413.87451171875 1768.88525390625 C -2411.37451171875 1771.39990234375 -2411.37451171875 1775.47607421875 -2413.87451171875 1777.990600585938 L -2423.999267578125 1786.999633789062 Z" stroke="none" fill="#d4d4d8"/>
  </g>
</svg>
