<svg xmlns="http://www.w3.org/2000/svg" width="24" height="20" viewBox="0 0 24 20">
  <g id="그룹_218664" data-name="그룹 218664" transform="translate(-595 -900)">
    <path id="패스_13019" data-name="패스 13019" d="M-2424,1787l-10.126-9.009a6.466,6.466,0,0,1,0-9.105,6.373,6.373,0,0,1,9.051,0l1.075,1.081,1.075-1.081a6.372,6.372,0,0,1,9.05,0,6.465,6.465,0,0,1,0,9.105Z" transform="translate(3031 -867)" fill="#ef2b2a"/>
    <g id="그룹_218662" data-name="그룹 218662" transform="translate(0 -1)">
      <g id="그룹_178630" data-name="그룹 178630" transform="translate(3 -377)">
        <circle id="타원_3714" data-name="타원 3714" cx="1" cy="1" r="1" transform="translate(601 1291)" fill="#ffdadb"/>
        <circle id="타원_3715" data-name="타원 3715" cx="1" cy="1" r="1" transform="translate(605 1291)" fill="#ffdadb"/>
        <circle id="타원_3716" data-name="타원 3716" cx="1" cy="1" r="1" transform="translate(603 1293)" fill="#ffdadb"/>
      </g>
    </g>
  </g>
</svg>
